<svg xmlns="http://www.w3.org/2000/svg" viewBox="0 0 32 32" shape-rendering="crispEdges">
  <!-- Envelope icon -->
  <rect fill="#808080" x="2" y="6" width="28" height="20"/>
  <rect fill="#FFFFFF" x="3" y="7" width="26" height="18"/>
  <rect fill="#C0C0C0" x="4" y="8" width="24" height="16"/>
  <!-- Envelope flap (triangle shape using rects) -->
  <rect fill="#AAAAAA" x="4" y="8" width="2" height="2"/>
  <rect fill="#AAAAAA" x="6" y="10" width="2" height="2"/>
  <rect fill="#AAAAAA" x="8" y="12" width="2" height="2"/>
  <rect fill="#AAAAAA" x="10" y="14" width="2" height="2"/>
  <rect fill="#AAAAAA" x="12" y="16" width="2" height="2"/>
  <rect fill="#AAAAAA" x="14" y="18" width="4" height="2"/>
  <rect fill="#AAAAAA" x="18" y="16" width="2" height="2"/>
  <rect fill="#AAAAAA" x="20" y="14" width="2" height="2"/>
  <rect fill="#AAAAAA" x="22" y="12" width="2" height="2"/>
  <rect fill="#AAAAAA" x="24" y="10" width="2" height="2"/>
  <rect fill="#AAAAAA" x="26" y="8" width="2" height="2"/>
  <!-- Center highlight -->
  <rect fill="#FFFF55" x="14" y="14" width="4" height="4"/>
</svg>
